<?xml version="1.0" encoding="UTF-8" standalone="no"?>
<svg
   width="128"
   height="128"
   viewBox="0 0 128 128"
   version="1.1"
   id="svg2"
   xmlns="http://www.w3.org/2000/svg"
   xmlns:svg="http://www.w3.org/2000/svg"
   xmlns:rdf="http://www.w3.org/1999/02/22-rdf-syntax-ns#"
   xmlns:cc="http://creativecommons.org/ns#"
   xmlns:dc="http://purl.org/dc/elements/1.1/">
  <defs
     id="defs2" />
  <title
     id="title1">Argocd SVG Icon</title>
  <path
     id="path1"
     d="M 63.177011,1.0657368 C 57.589019,1.1302878 52.551355,2.862362 48.037927,5.8986376 41.585415,10.241468 37.80909,16.120965 36.643591,23.455841 c -0.194434,0.898473 -0.26505,1.816457 -0.210126,2.731639 0.129356,1.123662 -0.412907,1.698268 -1.313288,2.306718 -7.849829,5.271644 -8.519709,13.877325 -5.388234,19.868592 1.380671,2.633431 3.559999,4.641116 6.106166,6.299113 0.798251,0.465951 1.264235,1.298279 1.218229,2.175972 0.169063,6.33195 0.285672,12.668793 1.118172,18.972053 0.0794,0.986192 0.104742,1.978808 0.06503,2.969782 0.0052,1.544436 0.322663,4.997267 -0.262659,6.25242 -0.873041,1.877257 -2.538898,3.334037 -4.602761,4.025081 -1.631493,0.532358 -3.299615,0.961366 -4.992995,1.284105 -0.655754,0.09444 -1.285572,0.285398 -1.881129,0.560335 0.294577,0.490109 0.784951,0.438856 1.180707,0.541659 3.191677,0.822424 6.404203,1.419817 9.75085,0.859182 1.086093,-0.186479 1.79748,0.42918 1.951173,1.592289 0.125105,0.981534 0.203562,1.967757 0.23514,2.955777 0.144728,4.432492 0.320272,8.857052 0.690415,13.279972 0.03969,0.47696 0.03397,0.9507 0.02502,1.42887 -0.03074,1.59106 -0.72599,2.54471 -2.356415,3.04916 -2.382228,0.73874 -4.791837,1.41455 -7.184308,2.12461 -0.359901,0.10638 -0.775027,0.13066 -1.060639,0.53231 0.696739,0.47098 1.526557,0.36582 2.246349,0.3969 2.936802,0.13627 5.862998,0.44394 8.820291,0.13075 3.356895,-0.35503 4.977507,-1.80629 5.31819,-4.97764 0.578909,-5.39358 1.03094,-10.79731 1.230739,-16.212413 0.04482,-0.798515 0.155887,-1.596066 0.335202,-2.381433 0,1.135615 0.02433,2.268542 -0.0049,3.404038 -0.144727,5.758178 0.30042,11.500318 0.45027,17.253708 0.07043,2.70754 -0.605323,3.53926 -3.382028,4.24454 -2.033305,0.55957 -4.113605,0.9579 -6.218732,1.19071 -1.359678,0.1203 -2.674611,0.51717 -3.852311,1.16271 0.254872,0.5188 0.655392,0.3969 0.975585,0.3969 3.697579,0.0239 7.389194,0.0505 11.081648,0.0326 0.824268,-0.0108 1.644779,-0.10567 2.446468,-0.28483 2.692175,-0.57379 4.241546,-2.33051 4.4977,-5.001 0.16906,-1.82655 0.321112,-3.65074 0.495297,-5.47728 0.02839,-0.45862 0.191048,-0.90116 0.470281,-1.27944 0.246283,0.62987 0.419053,1.28271 0.515309,1.94716 0.0999,2.6669 0.4756,5.32331 0.09006,8.00815 -0.12171,1.46325 -1.148795,2.72495 -2.626576,3.2266 -3.031579,1.14398 -6.238783,1.73745 -9.385631,2.51685 -0.924714,0.2295 -1.97603,0.31252 -2.356413,1.37282 h 12.262357 c 0.724916,-0.13149 1.455112,-0.25608 2.181309,-0.38757 3.231378,-0.58335 5.423174,-2.25521 6.173704,-5.29985 0.605804,-2.45652 1.055232,-4.94545 1.605962,-7.41511 0.174976,-0.83992 0.499674,-1.64645 0.960577,-2.38611 0.499499,2.27365 0.998105,4.54769 1.495899,6.8221 0.149848,0.67779 0.285291,1.35919 0.440262,2.04056 0.940085,4.13603 2.921635,5.82226 7.569541,6.44386 0.344528,0.0466 0.684815,0.12116 1.030619,0.18212 h 12.262355 c -0.115266,-0.89654 -0.875924,-1.01272 -1.60596,-1.18605 -3.272364,-0.76983 -6.548129,-1.55101 -9.73084,-2.61491 -2.461635,-0.81763 -3.271962,-1.97376 -3.271962,-4.37528 -0.0061,-5.9044 -0.0035,-11.80997 0.0049,-17.71597 -0.08452,-0.40523 -0.0089,-0.82613 0.210128,-1.190719 0.285025,0.284429 0.430069,0.666849 0.400239,1.055299 0.249748,3.87186 0.464358,7.75165 0.770462,11.62232 0.149852,1.92812 0.274242,3.87136 0.900541,5.74811 0.650628,1.95207 2.046187,3.12899 4.182508,3.40871 4.337964,0.57378 8.704385,0.0519 13.062843,0.17745 0.224134,0.009 0.525875,-0.0135 0.555334,-0.28484 0.02559,-0.24745 -0.25035,-0.34547 -0.455275,-0.44827 -0.841466,-0.41599 -1.731641,-0.86782 -2.6666,-0.79848 -2.667842,0.2056 -4.997202,-0.77995 -7.379431,-1.62031 -1.64963,-0.58454 -2.216331,-1.31275 -2.21633,-2.97913 -0.0037,-3.26458 -0.111349,-6.53337 0.05003,-9.7872 0.119112,-2.60235 0.03022,-5.21516 0.555335,-8.031497 0.07088,0.246047 0.127653,0.495439 0.170101,0.747116 0.411126,4.706241 0.835582,9.412951 1.205722,14.125161 0.256156,3.22156 2.121193,4.93614 5.593361,4.96364 3.260833,0.0238 6.523753,0.009 9.785878,-0.005 0.320175,0 0.70545,0.13078 0.970573,-0.21947 -0.280489,-0.48055 -0.814695,-0.56967 -1.275757,-0.71909 -1.846875,-0.61205 -3.712394,-1.19128 -5.573352,-1.76507 -3.816691,-1.18104 -3.972583,-1.51749 -3.697216,-5.20645 0.279208,-3.79535 0.644267,-7.58849 0.745449,-11.398189 0.0067,-1.905752 0.192792,-3.807262 0.555334,-5.68274 0.154967,-0.719622 0.410042,-0.956793 1.165699,-0.677073 0.933793,0.286968 1.914067,0.419703 2.896734,0.392236 2.477008,0.08845 4.812086,-0.596498 7.194309,-1.045962 0.500771,-0.09204 1.096621,3.73e-4 1.535921,-0.513641 -0.48029,-0.278527 -1.01636,-0.476324 -1.570946,-0.574345 -1.816125,-0.472177 -3.691723,-0.700421 -5.473273,-1.298113 -2.021394,-0.594622 -3.641002,-2.018548 -4.397636,-3.86632 -0.661875,-1.951426 -0.463667,-4.179668 -0.537716,-6.229147 -0.134475,-3.642334 0.600124,-7.228749 0.770466,-10.847177 0.138325,-2.966146 0.275334,-5.9301 0.410242,-8.890669 0.01534,-0.295259 0.02425,-0.588464 0.01,-0.882529 -0.08581,-1.806225 0.442642,-3.114536 2.208825,-4.30992 5.933805,-4.029639 7.937618,-9.62426 6.481398,-16.277769 C 98.595738,34.045617 96.223761,31.206581 93.157602,28.918614 91.955997,28.121203 91.28293,26.79944 91.379047,25.426115 91.389256,15.372935 83.194863,5.4629762 72.542712,2.5737329 69.490641,1.7465271 66.375172,1.0284372 63.177093,1.0654941 Z M 44.69092,29.484126 c 4.608458,-0.02307 8.875601,2.264201 11.176705,5.990929 2.296469,3.728032 2.275468,8.318961 -0.05504,12.028552 -2.33545,3.705398 -6.621115,5.956708 -11.226736,5.897539 -7.474563,-0.02749 -12.888451,-5.202498 -12.857713,-12.294712 0.02945,-6.547118 5.71875,-11.649802 12.962776,-11.622308 z m 38.363015,0.03736 c 7.114671,-0.01315 12.70763,5.28528 12.70763,12.033223 0.0047,6.751529 -5.518718,11.860787 -12.812691,11.846442 -7.264518,-0.0096 -12.78187,-5.221587 -12.762659,-12.047231 0.02049,-6.486153 5.818371,-11.82287 12.86772,-11.832434 z M 54.714433,65.149533 c 0.289826,-0.01828 0.536141,0.313863 0.787973,0.457609 1.036141,0.597692 2.025456,1.261203 3.071843,1.839769 3.417091,1.886317 6.908424,1.886317 10.461276,0.298847 1.47673,-0.662243 2.788114,-1.583137 4.167501,-2.372091 0.246279,0.241359 0.309738,0.59858 0.160097,0.901207 -0.690335,1.60062 -0.43482,3.315324 -0.720434,4.958977 -0.655753,3.730794 -3.70206,6.799196 -7.444466,7.527184 -1.840266,0.340669 -3.748461,-0.07819 -5.23314,-1.148689 -2.981629,-1.966406 -4.742484,-4.60406 -4.91795,-8.092191 -0.115269,-1.129638 -0.29942,-2.253896 -0.545329,-3.362017 -0.05508,-0.321559 -0.285645,-0.747414 0.0049,-0.933894 0.07229,-0.04818 0.140742,-0.07049 0.207625,-0.07471 z"
     style="stroke-width:1.23733" />
  <path
     id="path2"
     d="m 83.402977,37.091792 a 4.2295856,4.2327805 0 0 0 -3.981405,4.105764 c -0.03105,2.614749 1.596038,4.3026 4.15319,4.318133 2.461436,0.01553 4.31124,-1.753545 4.304768,-4.115878 a 4.3977344,4.4010561 0 0 0 -4.476553,-4.308019 z m -39.354266,0.03034 a 4.0911863,4.0942767 0 0 0 -3.925827,4.232173 c 0.01163,2.548729 1.615197,4.156207 4.163297,4.161385 2.465317,0.01039 4.300317,-1.774701 4.274453,-4.151271 -0.02458,-2.427053 -1.970292,-4.251348 -4.511923,-4.242287 z"
     style="stroke-width:1.29393" />
  <metadata
     id="metadata1">
    <rdf:RDF>
      <cc:Work
         rdf:about="">
        <dc:title>Argocd SVG Icon</dc:title>
      </cc:Work>
    </rdf:RDF>
  </metadata>
</svg>
